<?xml version="1.0" standalone="no"?>
<!DOCTYPE svg PUBLIC "-//W3C//DTD SVG 20010904//EN"
 "http://www.w3.org/TR/2001/REC-SVG-20010904/DTD/svg10.dtd">
<svg version="1.0" xmlns="http://www.w3.org/2000/svg"
 width="1024.000000pt" height="1024.000000pt" viewBox="0 0 1024.000000 1024.000000"
 preserveAspectRatio="xMidYMid meet">

<g transform="translate(0.000000,1024.000000) scale(0.100000,-0.100000)"
fill="#003366" stroke="003366">
<path d="M4800 9264 c-1235 -38 -2352 -231 -3435 -592 l-200 -67 0 -955 c0
-525 4 -1121 9 -1324 l8 -368 72 6 c39 4 82 10 95 13 l24 6 -7 161 c-3 89 -9
645 -12 1237 -7 1050 -6 1077 12 1087 27 14 406 132 604 187 508 143 1199 277
1746 340 526 60 939 79 1524 72 439 -6 588 -13 930 -43 856 -75 1731 -250
2559 -510 l144 -46 -7 -726 c-3 -400 -9 -743 -12 -762 l-5 -35 94 -51 94 -50
7 85 c3 47 9 444 12 882 l7 797 -154 50 c-814 267 -1581 433 -2439 531 -200
23 -488 47 -735 61 -186 10 -768 19 -935 14z"/>
<path d="M7802 7940 c-77 -49 -138 -105 -191 -174 -40 -52 -42 -53 -141 -79
-151 -40 -330 -97 -330 -106 0 -4 18 -16 40 -26 22 -10 40 -21 40 -25 0 -16
-657 -186 -970 -250 -184 -38 -429 -90 -545 -115 l-209 -46 -196 15 c-286 23
-1268 95 -1320 97 -33 1 -81 -12 -175 -49 -71 -27 -263 -98 -425 -157 -162
-59 -311 -116 -331 -126 -20 -10 -122 -98 -226 -196 -520 -489 -744 -674 -993
-821 -249 -147 -504 -212 -728 -184 -121 15 -142 15 -142 0 0 -24 110 -118
177 -151 71 -36 220 -87 254 -87 10 0 19 -4 19 -8 0 -4 -48 -17 -106 -27 -58
-11 -111 -23 -117 -28 -31 -20 99 -89 215 -113 78 -17 242 -14 307 5 44 13 49
8 22 -21 l-22 -22 22 -8 c29 -11 154 7 231 33 161 54 376 199 542 364 42 42
76 74 76 72 0 -4 -11 -43 -56 -195 -20 -70 -106 -181 -269 -350 -73 -75 -135
-146 -138 -157 -4 -11 -25 -123 -47 -250 -22 -126 -49 -272 -60 -322 -11 -51
-20 -103 -20 -116 0 -20 134 -232 177 -279 15 -16 41 -18 273 -18 141 0 259 3
262 6 5 5 -103 184 -132 219 -11 13 -39 18 -173 30 -61 6 -69 9 -78 32 -11 29
-8 38 96 288 36 88 71 165 78 172 21 20 977 452 977 441 0 -19 -31 -133 -91
-336 -39 -129 -59 -212 -55 -228 4 -13 75 -97 160 -186 84 -90 205 -224 268
-298 l114 -135 277 -3 c152 -1 277 1 277 4 0 15 -164 225 -184 236 -11 7 -72
15 -135 18 l-114 5 -118 165 c-65 91 -121 170 -125 177 -3 7 26 56 64 110 112
157 167 251 310 533 99 194 139 264 151 263 9 -2 214 -19 456 -39 242 -19 441
-36 442 -38 9 -8 -71 -348 -131 -561 -25 -88 -50 -184 -56 -213 l-12 -53 73
-117 c161 -259 302 -477 313 -484 6 -4 136 -8 289 -8 235 0 278 2 283 15 5 13
-42 76 -144 189 l-35 39 -120 11 -119 11 -64 174 c-56 151 -63 176 -51 190 8
9 83 117 168 241 84 124 192 282 239 352 l87 127 284 -143 c786 -395 1039
-593 1368 -1074 51 -76 92 -124 105 -127 11 -3 127 -4 256 -3 208 3 235 5 238
19 4 20 -111 209 -134 222 -9 5 -68 12 -132 16 l-115 6 -92 150 c-188 310
-285 450 -391 570 -59 66 -183 211 -275 322 l-169 202 58 90 c31 50 60 91 65
91 4 0 7 -10 8 -22 l0 -23 17 23 c9 13 40 66 68 119 l51 95 7 -36 c4 -20 11
-36 16 -36 12 0 109 135 165 230 54 93 65 103 65 61 0 -17 4 -31 9 -31 4 0 46
48 91 108 95 122 234 268 300 316 58 43 116 56 237 56 127 0 206 -18 334 -74
122 -52 205 -69 285 -56 96 16 249 98 335 180 39 37 41 41 27 62 -8 13 -45 46
-83 73 -37 28 -127 97 -199 154 -72 57 -161 124 -198 147 -37 24 -74 54 -82
66 -9 13 -26 66 -40 117 -13 51 -33 105 -43 120 -11 14 -63 58 -115 98 l-95
72 28 138 c40 203 43 225 26 247 -14 19 -18 17 -97 -40 -45 -32 -102 -77 -126
-100 l-44 -40 0 56 c0 62 -17 170 -29 183 -4 4 -35 -11 -69 -33z m-16 -159
c-10 -95 -9 -325 1 -328 6 -2 29 26 53 62 23 36 44 65 47 65 21 0 337 -240
357 -272 11 -17 32 -69 47 -116 38 -114 66 -151 168 -221 106 -72 341 -259
341 -271 0 -4 -24 -30 -53 -56 -141 -129 -259 -139 -422 -35 -84 54 -161 72
-332 78 -211 8 -206 11 -412 -191 -109 -108 -161 -153 -156 -136 4 14 34 103
66 199 32 95 59 176 59 178 0 3 -52 -23 -116 -57 -64 -34 -117 -60 -119 -58
-2 2 34 97 79 211 l83 207 -46 0 c-50 0 -204 -23 -235 -36 -51 -20 150 277
447 659 67 86 123 164 125 172 2 9 8 12 14 9 6 -4 8 -28 4 -63z m-408 -339
c-178 -246 -273 -372 -280 -372 -5 0 -100 46 -211 102 -162 81 -198 103 -182
110 11 4 110 33 220 63 110 30 245 68 300 84 55 16 115 29 133 30 30 1 32 -1
20 -17z m-974 -325 c-215 -379 -370 -646 -375 -647 -8 0 -443 579 -438 584 5
4 642 130 763 151 49 8 92 17 94 20 3 3 7 3 10 0 3 -2 -22 -51 -54 -108z m441
-20 c105 -55 197 -107 206 -114 24 -20 13 -48 -30 -76 -20 -13 -110 -79 -200
-146 -89 -67 -164 -121 -165 -119 -3 3 -66 555 -66 576 0 15 -13 21 255 -121z
m-2625 29 c150 -10 1144 -86 1160 -89 8 -1 -72 -49 -178 -107 -106 -58 -231
-126 -277 -152 l-83 -47 -294 156 c-161 85 -331 175 -378 200 -99 52 -105 57
-65 50 17 -3 68 -8 115 -11z m2304 -58 c3 -40 18 -167 32 -281 14 -115 24
-210 22 -212 -2 -1 -98 -26 -214 -54 -116 -28 -219 -53 -227 -57 -16 -6 25 68
255 470 59 104 108 192 108 197 0 5 4 9 9 9 4 0 11 -33 15 -72z m-2139 -194
c176 -92 332 -175 347 -184 l28 -17 -233 -113 c-127 -63 -321 -157 -429 -211
l-198 -97 0 32 c0 34 54 581 70 711 6 44 10 83 10 88 0 5 19 -2 43 -16 23 -13
186 -100 362 -193z m-711 64 c-319 -355 -377 -418 -384 -418 -8 0 -150 293
-150 309 0 5 42 25 93 45 135 52 551 204 560 205 5 1 -49 -63 -119 -141z m207
10 c-7 -51 -24 -227 -40 -391 -16 -164 -31 -300 -34 -303 -7 -7 -448 199 -444
207 5 13 522 588 525 584 2 -2 -1 -45 -7 -97z m1751 -93 c167 -216 330 -437
325 -441 -2 -2 -114 2 -248 11 -134 8 -253 15 -264 15 -20 0 -20 4 17 198 56
286 70 345 78 335 3 -4 45 -57 92 -118z m-237 -132 c-26 -131 -49 -243 -51
-250 -2 -8 -16 -5 -46 11 -24 13 -114 60 -200 106 -87 45 -158 86 -158 89 0 4
98 63 218 130 119 68 231 132 247 141 17 9 32 16 34 14 2 -2 -18 -110 -44
-241z m1945 214 c0 -2 -34 -93 -75 -203 -56 -150 -81 -204 -102 -221 -54 -44
-143 -103 -143 -96 0 34 73 296 112 406 24 66 59 94 136 107 58 9 72 11 72 7z
m-305 -134 c-29 -75 -148 -585 -215 -922 -35 -175 -50 -230 -50 -190 0 8 -9
82 -20 164 -59 446 -81 633 -78 662 3 29 21 46 183 167 99 75 182 136 184 136
2 0 0 -8 -4 -17z m-3885 -193 c41 -82 72 -152 68 -155 -3 -3 -81 -46 -174 -96
-93 -50 -193 -104 -222 -121 l-53 -30 24 44 c13 23 67 124 120 223 143 270
152 285 157 285 3 0 39 -67 80 -150z m1900 -95 c146 -75 189 -100 170 -103
-14 -1 -171 -25 -350 -52 -179 -27 -417 -63 -530 -80 -113 -17 -221 -33 -240
-36 -19 -3 89 54 240 128 151 74 325 160 385 191 61 31 115 55 120 54 6 -1 98
-47 205 -102z m2329 -26 c-98 -277 -85 -250 -165 -330 -55 -55 -74 -68 -74
-54 0 11 29 105 64 210 l64 189 68 37 c38 20 70 36 71 35 1 -1 -11 -40 -28
-87z m-819 -16 c-1 -17 -197 -385 -206 -386 -5 0 -65 62 -133 138 -108 120
-122 140 -105 146 16 6 415 105 437 108 4 0 7 -2 7 -6z m521 -268 c-55 -157
-76 -204 -121 -268 -29 -42 -55 -75 -58 -73 -5 6 24 160 59 306 l30 125 77 52
c42 28 78 51 79 50 1 -1 -29 -88 -66 -192z m-3568 86 c106 -48 209 -97 230
-107 l38 -20 -153 -99 c-84 -55 -258 -171 -387 -258 -129 -86 -235 -156 -236
-155 -2 2 55 140 126 308 71 168 139 331 152 363 12 31 25 57 30 57 4 0 94
-40 200 -89z m3127 -238 c22 -164 42 -313 45 -331 6 -35 1 -30 -212 214 l-62
71 91 176 c50 97 93 175 95 173 3 -2 22 -138 43 -303z m-3445 270 c-15 -33
-242 -580 -277 -668 l-23 -60 -150 -77 c-83 -42 -152 -75 -154 -73 -1 2 8 39
22 82 36 109 53 193 77 378 12 88 25 166 29 173 5 8 110 69 234 136 125 67
229 125 233 129 17 16 22 5 9 -20z m2691 11 l91 -7 -37 -149 c-21 -82 -40
-151 -42 -153 -2 -2 -64 44 -138 103 -75 59 -169 133 -210 166 l-75 58 160 -6
c88 -3 201 -9 251 -12z m-677 -17 c-9 -7 -467 -423 -505 -459 l-41 -39 -333
162 -332 163 358 53 c198 30 469 71 604 91 219 34 263 39 249 29z m100 -64
c-4 -27 -26 -165 -49 -308 -59 -376 -57 -367 -83 -359 -21 7 -418 192 -424
198 -2 2 106 102 239 224 134 121 259 236 277 256 19 20 38 36 42 36 3 0 3
-21 -2 -47z m327 -135 c88 -69 170 -132 182 -139 12 -8 22 -17 22 -21 0 -4
-116 -84 -257 -179 -142 -94 -266 -178 -275 -187 -16 -14 -18 -13 -18 5 0 11
7 60 15 109 8 49 30 188 50 309 19 121 37 235 40 253 l6 33 37 -29 c20 -16
109 -85 198 -154z m529 46 c55 -63 110 -127 122 -142 l21 -27 -49 -80 c-28
-44 -54 -86 -58 -94 -7 -11 -33 5 -115 68 -58 45 -106 89 -106 97 0 13 28 130
61 257 5 20 13 37 17 36 4 0 52 -52 107 -115z m-1895 -246 c270 -133 311 -156
290 -163 -14 -4 -74 -32 -134 -62 l-110 -54 -88 3 -88 3 -78 175 c-44 96 -89
195 -101 219 -12 24 -19 41 -14 39 4 -2 150 -74 323 -160z m-652 -225 l-152
-361 -61 30 c-33 17 -134 69 -223 116 l-164 85 373 248 c206 136 375 246 376
245 2 -1 -66 -165 -149 -363z m333 161 c39 -88 79 -175 88 -195 l18 -36 -240
-131 c-133 -73 -242 -130 -244 -129 -3 3 270 647 283 669 9 14 9 13 95 -178z
m2452 44 c60 -69 426 -507 487 -583 71 -88 169 -203 239 -279 59 -64 30 -42
-161 123 -78 68 -270 229 -425 358 l-281 233 51 90 c29 49 54 90 57 90 2 0 17
-15 33 -32z m-336 -95 l91 -69 -101 -95 c-56 -53 -150 -128 -209 -167 l-106
-71 90 222 c49 122 94 232 99 245 11 28 13 27 136 -65z m-324 -181 c-68 -169
-89 -213 -102 -209 -94 28 -258 80 -281 90 -29 12 -28 13 218 173 136 89 248
161 249 160 1 -1 -37 -97 -84 -214z m-3798 139 c-15 -13 -307 -225 -337 -245
-24 -15 -34 -16 -85 -6 -69 14 -255 69 -266 79 -4 4 35 13 85 20 127 18 297
61 453 115 129 44 168 54 150 37z m2882 -109 c82 -37 159 -73 173 -79 28 -13
43 -14 -290 13 -289 23 -282 19 -147 81 61 28 113 52 114 52 2 1 69 -30 150
-67z m1689 -219 c599 -501 660 -550 779 -626 43 -28 65 -57 165 -214 63 -100
141 -224 172 -276 72 -118 87 -127 227 -127 l100 0 26 -37 c14 -21 25 -42 25
-47 0 -5 -65 -6 -162 -2 -139 5 -165 9 -176 24 -118 163 -175 238 -263 342
-176 211 -251 283 -403 388 -306 211 -443 293 -730 438 -160 81 -293 149 -295
151 -3 2 29 33 70 70 41 37 94 88 119 114 25 26 46 48 48 48 1 1 136 -110 298
-246z m-4637 52 c-71 -68 -96 -86 -140 -100 -65 -19 -202 -30 -254 -21 l-38 7
84 29 c67 22 234 92 384 160 53 24 43 2 -36 -75z m1279 -92 l207 -107 -130
-62 c-174 -84 -667 -305 -671 -301 -4 3 377 577 383 577 3 0 98 -48 211 -107z
m-549 -244 c-198 -295 -204 -305 -251 -438 -27 -75 -69 -186 -93 -247 -25 -61
-45 -123 -45 -137 0 -42 40 -117 67 -128 13 -5 69 -9 123 -9 l99 0 24 -32 c13
-18 27 -38 30 -44 4 -8 -46 -11 -171 -10 l-177 1 -73 109 c-56 83 -73 116 -69
135 12 73 128 602 136 623 5 13 17 30 26 38 10 8 72 75 138 150 l121 135 156
81 c85 44 157 79 158 78 2 -1 -87 -138 -199 -305z m2893 220 c60 -18 107 -36
106 -40 -4 -9 -498 -539 -503 -539 -2 0 3 21 11 48 22 72 89 344 114 462 11
58 23 113 26 122 5 18 -6 21 246 -53z m213 -96 c-23 -36 -273 -392 -353 -503
-96 -132 -96 -115 -5 -345 58 -148 84 -202 102 -214 18 -11 55 -17 132 -19
l107 -4 37 -37 36 -38 -181 -7 c-100 -3 -185 -4 -189 -1 -5 3 -35 51 -67 107
-32 57 -103 175 -159 264 l-102 161 46 49 c61 65 530 562 558 591 12 13 30 23
39 23 15 0 15 -2 -1 -27z"/>
<path d="M7974 7186 c-28 -13 -54 -28 -58 -34 -12 -19 108 -62 205 -72 52 -5
105 -10 118 -10 l25 0 -30 31 c-49 51 -143 109 -178 109 -17 0 -54 -11 -82
-24z"/>
<path d="M8996 6311 c-15 -10 -55 -29 -87 -42 -56 -23 -59 -25 -59 -59 0 -98
-22 -580 -35 -760 -47 -668 -179 -1157 -426 -1588 -227 -394 -490 -712 -904
-1090 -613 -561 -1239 -993 -2180 -1507 l-179 -99 -121 63 c-463 237 -933 523
-1351 822 -1366 978 -1950 1725 -2173 2783 -17 81 -31 156 -31 169 0 20 -9 24
-100 43 l-99 20 6 -46 c3 -25 21 -124 39 -220 171 -872 621 -1579 1470 -2307
344 -294 919 -714 1330 -971 335 -209 981 -562 1029 -562 25 0 296 142 595
313 917 524 1708 1124 2248 1707 484 522 754 997 912 1605 90 346 130 689 150
1290 12 354 12 455 3 455 -5 0 -21 -9 -37 -19z"/>
<path d="M2630 3680 c-104 -4 -127 -6 -70 -8 47 -1 199 -7 338 -13 l254 -11
85 -89 86 -89 236 0 236 0 135 -122 c74 -66 165 -147 203 -179 l68 -59 152 0
152 0 90 -90 90 -90 -505 -1 c-278 -1 -611 -4 -740 -8 l-235 -6 235 -8 c378
-12 1521 -28 1550 -22 16 4 95 75 210 190 l185 185 416 0 417 0 189 194 189
195 459 10 c253 6 505 12 560 13 137 3 -435 15 -775 17 l-275 1 -190 -190
-190 -190 -414 0 -414 0 -192 -190 -192 -190 -103 0 -104 0 -116 115 -117 115
-154 0 -154 0 -140 126 c-77 69 -170 152 -207 185 l-68 58 -231 -6 -230 -6
-88 87 -88 87 -194 -3 c-107 -2 -264 -5 -349 -8z"/>
<path d="M5907 2795 l-142 -134 -193 -1 -192 0 -176 -170 -176 -170 -210 0
-210 0 -81 76 c-44 42 -92 80 -106 86 -24 9 -830 2 -840 -8 -2 -2 22 -4 55 -4
32 0 145 -4 249 -9 105 -6 263 -13 352 -17 l162 -6 96 -89 95 -89 220 0 c173
0 227 3 248 14 15 8 99 87 187 175 l160 161 188 0 189 0 71 67 c40 37 106 101
148 141 l77 74 338 9 c187 4 391 9 454 10 138 3 -297 16 -608 18 l-212 1 -143
-135z"/>
</g>
</svg>
