<?xml version="1.0" standalone="no"?>
<!DOCTYPE svg PUBLIC "-//W3C//DTD SVG 20010904//EN"
 "http://www.w3.org/TR/2001/REC-SVG-20010904/DTD/svg10.dtd">
<svg version="1.0" xmlns="http://www.w3.org/2000/svg"
 width="1024.000000pt" height="1024.000000pt" viewBox="0 0 1024.000000 1024.000000"
 preserveAspectRatio="xMidYMid meet">

<g transform="translate(0.000000,1024.000000) scale(0.100000,-0.100000)"
fill="#003366" stroke="003366">
<path d="M7800 8164 c-89 -59 -145 -111 -221 -204 -39 -48 -81 -91 -93 -94
-166 -48 -317 -76 -402 -76 -76 0 -94 -3 -94 -15 0 -8 10 -20 22 -26 19 -10 4
-18 -138 -64 -87 -29 -196 -69 -241 -89 -73 -32 -87 -35 -140 -30 -71 8 -121
-10 -154 -55 -17 -23 -33 -32 -63 -36 -23 -2 -206 -25 -408 -50 l-367 -46 -40
21 c-53 27 -102 25 -163 -5 l-49 -25 -127 15 c-168 19 -517 42 -777 51 -183 6
-213 9 -234 25 -62 49 -152 42 -206 -16 -25 -27 -51 -39 -160 -70 -130 -38
-377 -124 -468 -164 -126 -55 -418 -288 -577 -460 -52 -57 -178 -175 -280
-263 -321 -279 -575 -426 -874 -505 -87 -23 -124 -28 -264 -30 -89 -1 -167 -5
-173 -8 -13 -9 -1 -45 24 -73 28 -30 114 -87 200 -133 l68 -36 -27 -12 -27
-12 25 -26 c29 -28 133 -57 245 -68 37 -3 84 -8 103 -11 l35 -6 -34 -12 c-19
-6 -36 -16 -38 -23 -13 -39 289 -36 390 3 12 4 17 1 17 -14 0 -11 7 -22 15
-26 18 -7 138 74 234 159 41 36 77 65 81 65 4 0 10 -9 13 -21 6 -21 6 -21 37
-2 50 28 145 135 260 290 58 78 106 140 108 138 7 -6 -38 -221 -57 -276 -25
-74 -54 -130 -114 -219 -96 -142 -166 -201 -319 -266 -46 -19 -86 -38 -90 -42
-4 -4 -19 -90 -33 -192 -14 -102 -40 -266 -57 -365 -17 -99 -33 -194 -35 -212
-6 -36 42 -122 108 -197 l37 -41 2912 -3 c2154 -1 2916 1 2926 9 20 16 -45
135 -111 205 -60 63 -104 78 -218 72 l-79 -3 -44 70 c-24 39 -76 126 -115 194
-134 234 -148 253 -288 396 -76 77 -214 223 -307 324 l-169 184 25 16 c13 9
47 35 76 58 40 33 53 39 58 28 3 -8 11 -15 18 -15 8 0 64 57 125 128 61 70
125 140 142 156 28 26 31 28 31 10 0 -11 7 -30 16 -43 l17 -24 13 24 c7 13 13
32 14 41 0 39 168 318 190 318 5 0 17 -16 29 -35 11 -19 26 -35 34 -35 7 0 24
24 38 52 31 67 118 154 194 195 162 85 336 82 539 -10 126 -57 199 -62 289
-19 36 16 82 45 103 64 22 18 52 40 68 48 47 24 134 112 142 145 6 25 3 33
-22 52 -402 309 -396 303 -425 392 -38 115 -57 142 -209 291 l-148 146 18 35
c10 19 30 85 46 146 22 92 25 117 16 138 -22 48 -58 34 -160 -61 -51 -48 -96
-83 -100 -79 -9 9 -30 130 -31 181 -1 45 -23 78 -56 88 -14 4 -39 -6 -75 -30z
m-24 -211 c-25 -48 -55 -104 -65 -123 -11 -19 -38 -74 -60 -121 -22 -48 -47
-89 -56 -93 -38 -14 -2 153 52 246 35 58 166 205 171 190 1 -5 -17 -50 -42
-99z m105 -166 c3 -67 4 -124 2 -127 -3 -3 -23 15 -45 40 -38 43 -40 47 -36
100 5 63 44 138 62 120 5 -5 13 -65 17 -133z m203 81 c-4 -13 -8 -34 -10 -46
-3 -32 -11 -37 -29 -22 -21 18 -19 30 12 62 32 34 37 35 27 6z m-724 -154 c0
-3 -14 -23 -32 -45 -25 -31 -38 -39 -64 -39 -42 0 -186 21 -181 27 3 2 56 17
118 33 111 28 159 36 159 24z m120 -73 l-11 -49 -42 5 c-23 3 -44 8 -47 10 -2
2 20 26 50 53 30 26 57 44 58 39 2 -5 -1 -31 -8 -58z m568 -21 c47 -72 49 -78
26 -87 -45 -17 -116 69 -112 135 3 38 4 40 23 28 11 -7 39 -41 63 -76z m-284
-18 c7 -42 6 -56 -8 -77 -16 -24 -18 -25 -47 -10 -36 19 -47 42 -30 64 6 9 21
31 32 49 12 18 27 31 33 29 6 -2 15 -27 20 -55z m433 -17 l58 -54 -41 -1 c-33
0 -43 5 -52 23 -6 12 -21 37 -32 55 -35 52 0 41 67 -23z m-359 -26 c-3 -20 -5
-19 -9 9 -3 20 -2 29 4 23 5 -5 7 -19 5 -32z m-726 11 c57 -5 107 -9 111 -10
4 0 -20 -33 -54 -72 -34 -40 -63 -74 -64 -76 -3 -4 -425 35 -475 44 -34 6 -33
6 50 42 126 53 260 92 297 86 18 -3 79 -9 135 -14z m300 -25 c21 -3 40 -10 43
-15 7 -11 -13 -96 -32 -134 -15 -28 -15 -28 -86 -22 -40 4 -89 10 -109 13 -44
6 -44 6 47 109 44 50 61 63 78 60 12 -3 39 -8 59 -11z m548 -55 c33 -16 71
-30 85 -30 52 0 130 -61 123 -97 -5 -26 -95 -30 -140 -7 -18 10 -69 32 -113
50 -69 28 -80 36 -77 55 3 27 30 59 49 59 7 0 40 -13 73 -30z m-392 -20 c35 0
102 -19 102 -28 0 -4 -34 -15 -76 -23 l-76 -16 6 30 c3 16 7 41 7 56 2 23 2
24 6 4 3 -17 11 -23 31 -23z m756 -26 c17 -7 66 -82 66 -102 0 -6 -18 -10 -45
-8 -39 2 -49 8 -87 51 -69 78 -69 79 -5 72 30 -4 63 -10 71 -13z m-1534 -79
c85 -8 180 -18 212 -21 l56 -6 -42 -58 c-24 -32 -60 -88 -82 -124 -21 -36 -41
-66 -44 -66 -12 0 -266 234 -283 261 l-19 29 24 0 c12 0 93 -7 178 -15z m-620
-24 c-30 -16 -149 -70 -264 -121 l-209 -92 -26 21 c-14 11 -51 38 -83 58 -35
24 -56 45 -55 56 1 9 3 17 6 17 2 0 129 18 280 40 411 58 426 59 351 21z
m1696 4 c48 -14 94 -30 102 -34 10 -6 -17 -19 -89 -41 l-104 -33 -61 21 c-93
32 -158 62 -150 69 8 8 152 40 187 42 15 0 66 -10 115 -24z m-3206 -26 c259
-22 592 -57 598 -64 2 -2 1 -8 -2 -14 -11 -17 -264 -221 -274 -221 -11 0 -525
208 -659 266 -136 60 -137 66 -8 59 61 -4 216 -15 345 -26z m1596 -216 c-56
-126 -105 -236 -109 -246 -8 -21 -14 -18 -152 73 -38 25 -103 66 -143 90 -39
25 -71 49 -69 55 5 13 473 221 573 255 1 0 -44 -102 -100 -227z m1017 202 c37
-4 67 -10 67 -14 0 -6 -345 -273 -361 -279 -5 -2 -9 7 -9 21 0 27 149 260 177
276 10 6 27 9 38 7 11 -3 50 -8 88 -11z m-564 -160 l144 -142 -88 -174 c-102
-201 -124 -238 -135 -218 -5 8 -18 79 -29 159 -12 80 -33 219 -46 310 -39 257
-37 232 -12 218 12 -6 87 -75 166 -153z m-2852 138 c4 -10 -72 -68 -308 -236
l-107 -75 -45 52 c-26 30 -47 66 -49 81 l-3 29 245 83 c134 46 249 82 254 80
5 -2 11 -8 13 -14z m2623 -173 c12 -91 32 -245 46 -344 14 -98 24 -182 22
-187 -2 -4 -59 28 -128 72 -69 44 -146 92 -172 107 -27 15 -48 32 -48 38 0 11
117 269 192 422 55 112 62 102 88 -108z m-1985 25 c154 -64 315 -133 357 -152
l77 -36 -42 -30 c-23 -17 -75 -57 -115 -89 -63 -50 -79 -58 -115 -58 -41 0
-46 4 -160 122 -199 207 -347 368 -347 379 0 5 14 3 33 -5 17 -7 158 -66 312
-131z m3747 60 c26 -9 54 -25 63 -35 16 -17 12 -18 -82 -17 l-98 2 -5 45 c-4
38 -8 45 -25 42 -11 -2 -26 -4 -33 -4 -10 -1 -13 -14 -10 -45 l3 -43 -35 0
c-19 0 -62 11 -94 24 l-59 24 89 28 c49 15 95 27 102 25 6 -1 20 2 29 8 12 6
30 3 63 -13 25 -13 66 -31 92 -41z m-4066 -67 c197 -201 364 -387 364 -406 0
-10 -6 -25 -12 -34 -12 -15 -301 -112 -496 -166 -61 -17 -74 -18 -79 -7 -4 13
81 665 93 708 3 9 8 17 12 17 4 0 57 -51 118 -112z m3438 88 l59 -22 -49 -19
c-27 -10 -84 -36 -127 -57 -64 -32 -78 -36 -74 -21 3 10 8 34 12 53 11 61 16
71 38 80 36 14 79 10 141 -14z m769 13 c12 -7 64 -43 115 -82 69 -53 89 -73
78 -79 -31 -17 -79 5 -141 66 -57 56 -94 106 -80 106 4 0 16 -5 28 -11z
m-4417 -13 c3 -8 -12 -135 -34 -283 -22 -147 -43 -290 -47 -318 -9 -64 -10
-66 -44 -54 -43 15 -359 349 -340 359 26 15 364 252 399 281 39 32 58 36 66
15z m3379 -73 c-9 -61 -30 -102 -58 -112 -12 -5 -55 -10 -94 -13 -58 -3 -70
-1 -60 9 25 25 202 162 211 162 4 1 5 -20 1 -46z m-1959 5 c21 -18 50 -51 66
-72 l29 -40 -43 -17 c-24 -9 -83 -35 -133 -58 -49 -22 -99 -41 -110 -41 -11 0
-44 12 -74 25 l-54 25 24 26 c47 51 220 184 239 184 11 0 36 -15 56 -32z m197
-31 c40 -31 39 -36 -9 -51 -18 -6 -27 2 -52 42 l-30 49 27 -5 c14 -3 43 -18
64 -35z m2237 18 c16 -8 48 -32 72 -53 l44 -38 -94 -52 -94 -51 7 97 c6 82 15
111 33 112 2 0 16 -7 32 -15z m-140 -38 c0 -8 -5 -39 -11 -70 -9 -44 -9 -60 1
-72 17 -20 7 -20 -113 9 -121 29 -136 40 -82 62 22 8 74 30 115 49 87 39 90
39 90 22z m-4365 -94 c30 -37 55 -70 55 -74 0 -11 -176 -128 -203 -134 -23 -6
-25 -4 -20 17 23 103 88 258 109 258 2 0 28 -30 59 -67z m5100 40 c22 -12 49
-30 59 -42 19 -21 19 -21 -5 -21 -13 0 -62 -9 -109 -20 l-84 -21 -61 32 c-33
18 -70 41 -83 53 -22 19 -22 21 -5 34 30 22 237 11 288 -15z m-2556 -118 c68
-44 150 -99 182 -122 l58 -42 -42 -98 c-36 -82 -47 -98 -71 -104 -26 -7 -34 1
-192 199 -91 114 -170 215 -175 224 -8 14 -2 21 28 37 36 18 39 18 63 3 14 -9
81 -53 149 -97z m-2736 63 c-6 -7 -16 -31 -22 -53 -7 -22 -21 -63 -32 -91
l-20 -51 -53 -6 c-29 -3 -68 -2 -86 2 l-34 7 65 56 c102 89 173 147 183 147 5
1 4 -5 -1 -11z m5628 -34 c43 -42 39 -54 -22 -54 -28 0 -46 10 -88 48 l-53 47
62 -1 c57 -1 64 -4 101 -40z m-673 22 c15 -8 43 -27 62 -41 l35 -27 -50 6
c-27 3 -89 8 -137 12 -49 3 -88 9 -88 13 0 9 101 49 128 50 13 1 35 -5 50 -13z
m-2381 -211 c89 -110 162 -203 162 -208 1 -4 -16 4 -36 17 -21 13 -146 83
-278 156 -132 72 -241 133 -243 134 -5 6 204 105 218 103 8 -1 88 -92 177
-202z m1189 125 c-28 -43 -44 -54 -25 -17 23 42 42 68 47 63 3 -3 -7 -24 -22
-46z m337 -37 c-19 -49 -37 -90 -39 -92 -7 -8 -46 33 -90 95 -24 34 -44 64
-44 67 0 3 30 8 68 10 37 2 84 4 104 5 l36 2 -35 -87z m1371 50 c25 -21 58
-48 73 -60 38 -29 26 -36 -30 -17 -25 8 -99 21 -164 27 -65 7 -118 17 -118 22
0 10 34 22 135 48 30 8 56 15 57 16 1 0 22 -16 47 -36z m-3546 -9 l45 -27 -26
-14 c-55 -28 -176 -73 -199 -73 -19 0 -11 12 52 70 41 38 77 69 79 70 2 0 24
-12 49 -26z m2323 -49 c1 -11 1 -39 1 -62 -2 -38 -6 -43 -48 -68 -25 -15 -48
-24 -51 -21 -6 5 9 74 34 165 l15 53 24 -23 c13 -13 24 -33 25 -44z m172 51
c37 -7 70 -15 72 -18 5 -5 -111 -53 -128 -53 -4 0 -17 19 -27 43 -22 49 -24
49 83 28z m-4084 -62 c48 -40 313 -334 302 -334 -6 0 -34 9 -63 21 -29 12
-128 47 -220 79 -193 68 -268 99 -268 111 0 8 198 147 212 148 3 1 20 -11 37
-25z m4649 15 c53 -5 112 -18 131 -28 35 -18 79 -66 69 -76 -3 -3 -34 3 -69
14 -35 11 -100 26 -144 34 -44 8 -109 26 -145 40 l-65 26 63 0 c34 1 106 -4
160 -10z m-1160 -256 l4 -236 -78 43 c-137 74 -164 93 -164 117 0 22 220 327
229 318 2 -3 6 -112 9 -242z m162 136 c26 -40 30 -55 29 -115 0 -38 -6 -83
-12 -100 -13 -35 -84 -120 -93 -112 -8 8 -23 371 -17 403 l6 26 29 -28 c16
-15 42 -48 58 -74z m-1806 49 c39 -23 177 -100 306 -170 129 -70 228 -128 220
-128 -8 0 -112 20 -231 45 -118 24 -321 62 -450 85 -251 44 -309 56 -309 68 0
13 332 141 364 142 18 0 59 -17 100 -42z m2308 -67 c-26 -55 -50 -100 -53
-100 -6 -1 -20 46 -33 111 -6 24 -1 29 56 57 35 16 66 30 70 30 4 1 -14 -44
-40 -98z m233 75 l50 -12 -40 -12 c-23 -6 -70 -29 -105 -51 -36 -21 -66 -38
-68 -36 -4 4 12 36 45 88 26 41 36 43 118 23z m665 -11 c88 -8 152 -25 147
-39 -7 -22 -71 -56 -105 -56 -36 0 -113 31 -130 53 -5 7 -13 22 -17 35 -6 20
-4 22 17 18 13 -3 52 -8 88 -11z m-2254 -108 c186 -112 234 -147 202 -147 -7
0 -85 -9 -172 -20 -88 -11 -165 -20 -171 -20 -6 0 -16 12 -21 28 -8 22 -3 42
30 120 22 50 40 92 41 92 2 0 42 -24 91 -53z m-3326 13 c19 -36 -17 -125 -67
-170 -43 -38 -127 -84 -143 -78 -7 2 46 145 90 246 8 18 17 22 59 22 40 0 52
-4 61 -20z m4538 -58 l19 -57 -68 -74 c-38 -40 -69 -70 -69 -67 0 3 13 38 29
78 15 40 36 97 45 126 10 28 19 52 21 52 2 0 12 -26 23 -58z m-133 -38 c-14
-37 -25 -69 -25 -73 0 -3 -5 1 -10 9 -19 30 -11 80 16 105 15 14 31 25 35 25
5 0 -2 -30 -16 -66z m-4661 -49 c-19 -50 -44 -111 -55 -136 l-21 -46 -67 -7
c-136 -12 -138 -22 26 138 81 79 149 143 150 142 1 -1 -14 -42 -33 -91z m758
6 c128 -44 258 -90 288 -103 l55 -24 -154 -128 c-85 -70 -157 -123 -162 -119
-29 30 -277 453 -265 453 2 0 109 -36 238 -79z m1124 32 c-20 -39 -210 -305
-229 -321 -13 -11 -37 0 -159 73 -78 48 -145 91 -147 97 -5 15 14 25 104 52
146 45 413 121 438 125 4 0 1 -11 -7 -26z m544 -31 c404 -71 690 -126 690
-132 0 -3 -126 -46 -281 -94 l-281 -87 -68 53 c-111 87 -360 298 -360 305 0 7
25 4 300 -45z m-2031 -276 l1 -199 -28 39 c-74 102 -77 122 -38 297 18 79 37
150 42 158 14 22 22 -72 23 -295z m224 37 c59 -94 107 -178 107 -186 0 -9 -50
-52 -111 -97 -152 -113 -143 -128 -147 238 l-3 287 24 -35 c13 -19 72 -112
130 -207z m1646 72 c104 -88 190 -163 190 -166 1 -10 -113 -19 -239 -19 l-118
0 -5 33 c-7 38 -23 167 -32 256 -4 41 -3 62 4 60 5 -2 95 -76 200 -164z m-290
132 c9 -12 53 -307 46 -315 -1 -1 -73 -1 -159 0 l-156 3 71 100 c86 120 170
225 180 225 3 0 12 -6 18 -13z m2601 -95 c0 -43 -30 -129 -61 -172 -17 -23
-32 -40 -35 -38 -7 7 34 197 53 248 l17 45 12 -30 c7 -17 13 -41 14 -53z
m-722 5 c5 -37 -147 -306 -173 -307 -27 0 -257 263 -249 284 4 9 25 17 57 20
29 3 108 12 177 20 172 19 184 18 188 -17z m310 -89 c56 -33 102 -62 102 -64
0 -2 -40 -68 -88 -146 -49 -79 -92 -152 -97 -163 -7 -17 -9 -15 -16 16 -19 84
-57 386 -52 411 6 32 -5 36 151 -54z m-4008 -30 c-19 -36 -124 -197 -130 -198
-8 0 -40 122 -34 132 3 4 12 8 19 8 8 0 22 15 31 33 9 17 40 54 68 80 l51 48
3 -40 c2 -22 -2 -51 -8 -63z m4260 -39 c-26 -120 -37 -154 -57 -171 -31 -25
-7 107 35 194 20 42 38 75 39 74 2 -1 -6 -45 -17 -97z m-1248 36 c-63 -89
-261 -325 -279 -332 -8 -3 -27 1 -40 9 -53 32 -234 191 -226 199 9 8 550 178
571 179 8 0 -3 -23 -26 -55z m-1913 -48 c7 -34 30 -145 52 -245 22 -101 39
-186 37 -188 -5 -4 -318 13 -323 18 -4 4 141 389 174 463 20 45 24 48 35 32 8
-9 19 -45 25 -80z m149 45 c37 -27 93 -64 124 -83 32 -19 58 -39 58 -44 0 -6
-19 -42 -43 -80 -24 -39 -61 -103 -82 -143 -36 -65 -40 -70 -48 -50 -8 22
-107 431 -107 443 0 16 38 -1 98 -43z m-305 -34 c-15 -40 -52 -138 -83 -217
l-57 -144 -44 69 c-74 114 -84 133 -74 143 18 16 278 221 281 221 2 0 -8 -33
-23 -72z m2836 40 c6 -18 23 -118 36 -223 14 -104 27 -202 30 -217 2 -16 1
-28 -4 -28 -12 0 -84 53 -168 124 -79 65 -86 82 -57 139 33 66 138 237 145
237 4 0 12 -14 18 -32z m-659 -266 c-11 -125 -23 -241 -26 -257 l-5 -30 -137
68 c-75 37 -140 71 -144 75 -12 12 101 167 256 351 l71 85 3 -33 c2 -18 -6
-135 -18 -259z m239 137 c40 -46 78 -94 83 -106 20 -41 0 -69 -122 -174 -153
-131 -150 -130 -150 -82 0 52 40 484 46 503 6 16 7 15 143 -141z m-3665 80
c-23 -27 -206 -185 -255 -222 l-35 -27 20 109 21 108 45 21 c53 25 74 29 159
31 l64 1 -19 -21z m-327 -71 c-2 -7 -15 -58 -28 -114 l-24 -101 -76 27 c-123
44 -123 36 4 122 114 78 133 88 124 66z m343 -103 c-18 -62 -37 -106 -49 -116
-19 -16 -115 -40 -206 -53 l-40 -6 87 80 c91 84 230 201 235 197 1 -2 -11 -48
-27 -102z m460 -46 c32 -60 39 -119 16 -138 -16 -14 -124 -36 -133 -28 -3 4 7
65 22 137 33 149 30 148 95 29z m1704 69 c3 -13 8 -40 11 -60 l6 -37 -89 39
c-49 21 -108 44 -130 51 -23 6 -39 16 -36 20 3 5 57 9 119 9 111 0 115 -1 119
-22z m321 4 c-82 -50 -217 -113 -230 -108 -11 4 -15 21 -15 66 l0 60 138 0
c137 0 137 0 107 -18z m299 -65 c55 -45 101 -88 104 -94 4 -14 -209 -16 -426
-4 l-112 6 147 87 c82 48 157 87 168 87 11 0 65 -37 119 -82z m1621 -11 c-5
-36 -14 -47 -66 -85 -33 -24 -61 -42 -63 -40 -2 2 27 54 63 114 59 99 66 107
69 81 2 -17 1 -48 -3 -70z m-4311 7 c-7 -24 -34 -53 -34 -35 0 6 5 35 12 64
11 51 11 52 19 23 5 -16 6 -39 3 -52z m885 -90 c23 -45 41 -83 41 -85 0 -7
-294 22 -302 30 -5 5 38 44 94 88 118 91 103 94 167 -33z m-1492 -18 c35 -16
62 -29 60 -31 -11 -12 -216 -54 -248 -52 l-42 3 53 67 c61 76 40 74 177 13z
m-236 26 c-6 -10 -26 -37 -46 -60 -19 -24 -32 -47 -29 -52 3 -5 -61 -9 -153
-8 -172 0 -236 11 -144 23 59 8 201 51 296 91 74 30 89 32 76 6z m3227 -157
c61 -20 112 -39 112 -43 0 -4 -15 -11 -32 -16 -18 -6 -33 -17 -33 -25 0 -18
33 -25 225 -45 85 -9 156 -18 159 -20 2 -2 -24 -75 -57 -162 -33 -87 -74 -199
-91 -250 -16 -50 -57 -146 -91 -212 -33 -66 -60 -134 -60 -150 0 -17 10 -47
22 -68 13 -21 43 -83 69 -138 25 -55 67 -135 92 -178 26 -43 47 -83 47 -88 0
-5 -148 -9 -358 -9 l-359 0 -39 72 c-27 50 -52 81 -82 103 -41 28 -51 30 -147
33 l-104 4 -109 112 c-129 134 -162 190 -162 281 0 54 5 69 42 131 23 38 67
103 98 144 62 83 178 258 203 306 31 60 96 232 112 295 9 35 18 69 20 76 2 7
71 -10 207 -53 112 -36 254 -81 316 -100z m1333 22 c11 -64 24 -128 30 -142
l10 -27 -73 6 c-60 5 -134 22 -226 52 -9 3 -10 10 -5 20 11 19 235 216 240
211 2 -2 13 -56 24 -120z m-1981 87 c-5 -16 -19 -64 -31 -107 l-23 -79 -17 49
c-27 77 -25 90 29 129 26 19 48 35 49 35 1 0 -2 -12 -7 -27z m2209 -110 l46
-42 -20 -20 c-21 -20 -136 -83 -142 -77 -6 6 -53 234 -53 257 0 18 8 14 62
-28 33 -26 82 -67 107 -90z m-1204 58 c-30 -26 -80 -31 -152 -15 -40 9 -73 18
-73 20 0 2 53 4 117 4 66 0 113 -4 108 -9z m-2955 -11 c0 -12 -85 -80 -164
-132 -60 -39 -83 -47 -70 -26 4 7 10 42 13 78 l6 65 75 11 c99 15 140 16 140
4z m1053 -47 c26 -3 47 -8 47 -12 0 -8 -309 -195 -314 -190 -5 7 -26 146 -26
178 0 16 6 32 13 35 13 6 202 -1 280 -11z m2027 -13 c0 -39 -14 -44 -102 -33
l-73 8 70 27 c93 36 105 36 105 -2z m210 -20 l95 -49 -97 0 -98 -1 0 28 c0 15
-3 37 -6 50 -4 12 -2 22 2 21 5 0 52 -22 104 -49z m-2702 22 c-10 -24 -190
-281 -208 -297 -14 -13 -41 -20 -82 -23 l-61 -5 34 49 c19 27 64 99 100 159
l66 110 49 6 c77 9 106 10 102 1z m-929 -9 c0 -5 -34 -29 -75 -55 l-75 -48
-136 0 c-75 0 -134 3 -131 6 3 3 39 10 80 15 46 7 80 17 93 29 30 28 72 41
155 50 41 4 78 8 83 9 4 0 7 -2 6 -6z m-383 -12 c-10 -15 -95 -33 -129 -27
-18 3 -42 13 -53 21 -17 13 -8 14 84 15 57 0 101 -4 98 -9z m1984 -361 c1
-110 -16 -202 -66 -353 -30 -90 -34 -113 -25 -131 7 -11 124 -131 261 -264
138 -134 250 -248 250 -253 0 -5 -268 -9 -669 -9 l-669 0 -33 70 c-33 73 -81
125 -124 136 -13 3 -50 4 -83 2 l-59 -3 14 60 c36 157 108 351 154 414 30 42
106 97 169 121 19 7 114 51 210 96 96 45 211 96 255 113 114 44 204 114 261
202 24 39 57 93 72 119 l27 49 27 -137 c18 -88 28 -171 28 -232z m288 345 c2
-2 -42 -51 -99 -109 -56 -59 -104 -104 -106 -102 -3 2 -17 55 -33 116 l-28
111 131 -7 c73 -4 133 -8 135 -9z m273 -63 l13 -64 -40 -75 c-60 -109 -66 -97
-50 92 7 74 12 93 30 107 11 9 24 14 28 10 3 -4 12 -35 19 -70z m-1136 34 c34
-167 35 -161 -28 -184 -48 -18 -177 -44 -177 -35 0 2 38 59 85 128 86 125 109
142 120 91z m-975 -5 c0 -50 -55 -91 -145 -106 -39 -7 -38 -6 37 45 43 28 80
56 84 61 7 12 24 12 24 0z m1835 -234 l-77 -195 -45 90 -45 90 113 114 c67 67
117 110 122 105 6 -6 -22 -89 -68 -204z m2745 161 c6 -24 18 -65 25 -91 8 -27
11 -47 7 -45 -40 21 -116 53 -156 67 l-49 17 74 47 c41 25 77 47 81 47 4 0 12
-19 18 -42z m-3276 -29 c-60 -62 -97 -85 -152 -97 -39 -9 -42 -8 -30 6 18 22
220 153 227 147 2 -3 -17 -28 -45 -56z m2432 22 c-4 -5 -48 -45 -99 -89 l-93
-79 -20 83 -19 83 55 4 c119 7 181 7 176 -2z m1012 -95 c45 -49 80 -91 79 -92
-2 -2 -26 4 -55 12 -39 12 -56 23 -67 43 -22 44 -54 132 -46 129 4 -2 44 -43
89 -92z m-1292 -32 c13 -59 21 -111 17 -115 -37 -32 -158 -107 -165 -103 -16
10 -1 71 46 192 42 108 64 148 73 138 3 -2 16 -53 29 -112z m607 20 c42 -72
88 -107 310 -232 57 -33 138 -82 179 -110 41 -27 153 -100 249 -162 199 -128
211 -138 287 -240 30 -41 94 -122 142 -180 96 -116 150 -189 150 -202 0 -4
-344 -8 -764 -8 l-764 0 -41 69 c-22 37 -56 82 -76 100 -35 30 -38 31 -138 31
-56 0 -108 4 -116 9 -19 12 -30 86 -30 212 l-1 105 61 90 c70 102 130 178 254
319 48 55 119 137 157 183 38 45 77 82 86 82 11 0 32 -24 55 -66z m-255 -2
c-36 -37 -239 -280 -264 -316 -19 -27 -26 -16 -10 16 7 14 16 50 20 81 7 53
12 60 69 115 112 106 153 141 178 151 42 16 46 -6 7 -47z m422 47 c0 -22 -22
-49 -40 -49 -11 0 -26 12 -34 28 l-15 29 45 1 c26 1 44 -2 44 -9z m-2301 -239
c-19 -45 -88 -120 -110 -120 -7 0 4 34 74 210 l41 105 9 -72 c7 -64 5 -79 -14
-123z m2429 126 c13 -26 21 -50 19 -53 -3 -2 -30 10 -62 28 l-56 32 23 24 c31
33 49 26 76 -31z m218 -27 c41 -25 159 -152 146 -157 -5 -1 -52 11 -104 28
l-95 30 -47 79 c-25 43 -46 81 -46 84 0 8 102 -36 146 -64z m-3723 -38 c-78
-51 -253 -145 -259 -139 -5 5 90 133 106 143 12 7 150 32 189 34 20 1 11 -8
-36 -38z m-260 -23 c-121 -158 -159 -191 -245 -212 -25 -6 -24 -2 33 94 33 55
65 103 72 107 13 9 139 31 146 26 2 -1 -1 -8 -6 -15z m4309 -48 c40 -16 73
-39 109 -77 28 -30 49 -57 46 -59 -7 -7 -163 32 -195 48 -12 6 -33 30 -46 52
-13 23 -33 50 -45 60 -34 31 -24 37 27 17 26 -10 73 -29 104 -41z m-3192 -159
c0 -26 -55 -113 -94 -151 l-36 -34 5 29 c10 58 55 328 55 334 1 13 70 -164 70
-178z m-1427 79 c-18 -31 -28 -37 -38 -20 -7 11 25 48 43 49 10 1 8 -7 -5 -29z
m3147 5 c0 -22 -146 -279 -171 -301 -21 -19 -21 -19 -16 11 3 17 11 69 17 116
10 77 15 90 43 117 29 27 101 70 120 72 4 0 7 -7 7 -15z m1392 -103 c21 -20
36 -37 34 -39 -1 -2 -34 18 -72 43 -62 42 -65 46 -34 39 19 -4 52 -23 72 -43z
m-4606 -29 c4 -13 -9 -67 -29 -125 -24 -70 -36 -94 -36 -74 -1 31 17 194 25
236 6 24 6 25 20 5 8 -11 17 -30 20 -42z m3225 -36 c-25 -49 -59 -92 -67 -84
-6 5 45 104 70 136 20 26 18 -8 -3 -52z m1588 39 c35 -8 70 -21 77 -28 6 -7
14 -45 16 -84 l3 -70 -40 27 c-36 24 -155 158 -155 174 0 3 8 4 18 1 9 -3 46
-12 81 -20z m-3221 -68 c-9 -43 -9 -71 0 -119 6 -35 10 -64 8 -66 -2 -2 -18
21 -37 52 -18 30 -41 58 -51 61 -10 3 -18 12 -18 20 0 15 99 118 106 111 2 -2
-2 -29 -8 -59z m-1400 45 c-1 -5 -19 -46 -38 -92 l-35 -83 -12 72 c-7 40 -15
75 -18 79 -4 3 15 11 42 17 63 15 65 15 61 7z m4852 -148 c66 -92 118 -185
102 -185 -4 0 -44 32 -89 70 l-83 71 0 60 c0 56 1 60 17 48 9 -8 32 -36 53
-64z m-2085 18 c-4 -26 -14 -61 -23 -78 l-17 -30 -3 30 c-3 28 32 125 45 125
3 0 2 -21 -2 -47z m-2905 -91 c10 -81 10 -117 0 -170 -7 -37 -15 -71 -17 -75
-8 -14 -73 77 -73 103 0 21 71 252 76 247 1 -1 8 -48 14 -105z m1490 -46 c30
-40 50 -77 48 -88 -3 -17 -16 -8 -85 52 -87 74 -97 95 -71 143 13 25 4 33 108
-107z m1592 -26 c2 -50 2 -90 2 -90 -1 0 -28 30 -60 66 l-58 67 28 23 c15 13
40 24 56 24 l29 0 3 -90z m1935 -71 c43 -34 86 -71 95 -83 18 -21 25 -96 9
-96 -10 0 -221 241 -221 253 0 12 33 -8 117 -74z m-2066 18 c40 -64 46 -78 53
-127 l7 -45 -41 75 c-23 41 -46 79 -51 85 -11 11 -12 55 -1 55 4 -1 19 -20 33
-43z m-1197 -145 c21 -18 37 -35 35 -37 -2 -2 -20 -6 -40 -10 -34 -6 -37 -4
-82 50 -33 40 -47 66 -47 88 l0 30 48 -44 c26 -24 64 -59 86 -77z m-1820 -64
c16 -26 15 -26 -21 -48 -35 -21 -38 -21 -50 -4 -14 20 -16 49 -6 108 l6 39 28
-34 c15 -19 35 -46 43 -61z m3190 29 c20 -26 36 -51 36 -56 0 -5 -11 -16 -24
-24 -22 -15 -24 -14 -34 8 -12 26 -28 134 -19 125 2 -3 21 -26 41 -53z m2136
-57 c0 -3 -13 -14 -30 -23 -22 -14 -30 -15 -31 -5 0 7 -4 35 -8 61 l-8 48 38
-37 c22 -21 39 -41 39 -44z m-3234 -6 c22 -10 34 -23 34 -36 0 -11 5 -28 11
-39 9 -18 8 -20 -12 -17 -28 4 -108 108 -83 108 9 0 31 -7 50 -16z m-1838 -14
c12 -12 22 -27 22 -34 0 -8 12 -21 26 -31 33 -21 27 -27 -17 -15 -24 7 -45 24
-67 55 -31 44 -31 45 -9 45 13 0 33 -9 45 -20z m1718 -27 c21 -27 42 -54 47
-60 7 -10 -4 -13 -49 -13 l-59 0 -27 51 -26 50 21 9 c41 16 56 10 93 -37z
m1458 37 c20 -7 26 -17 26 -38 0 -15 5 -33 12 -40 16 -16 4 -26 -24 -18 -21 5
-68 71 -68 95 0 14 21 14 54 1z m2124 -2 c10 -13 52 -86 52 -92 0 -1 -13 -1
-30 2 -29 4 -120 75 -120 93 0 14 86 11 98 -3z m-5418 -60 c19 -23 29 -38 23
-35 -7 4 -15 2 -18 -4 -8 -11 -134 -3 -148 11 -4 4 15 17 42 29 28 12 51 26
51 31 0 20 18 9 50 -32z m3194 -29 c-2 -3 -29 -6 -61 -7 l-58 -2 30 22 c16 13
36 30 44 40 13 15 16 14 31 -15 9 -18 15 -35 14 -38z m2102 16 l39 -36 -67 4
c-37 1 -70 6 -74 9 -6 7 44 57 57 58 3 0 23 -16 45 -35z"/>
<path d="M6268 4050 c-259 -44 -402 -169 -456 -400 -14 -64 -17 -127 -17 -425
1 -384 9 -461 63 -575 33 -71 121 -157 197 -194 181 -88 443 -100 639 -29 177
64 272 170 313 353 25 112 26 770 0 880 -41 181 -144 296 -316 355 -123 42
-297 56 -423 35z m266 -286 c61 -22 114 -79 134 -144 15 -47 17 -103 17 -400
0 -299 -2 -352 -17 -401 -34 -108 -140 -168 -279 -156 -79 7 -123 24 -171 66
-67 59 -71 85 -76 456 -4 373 2 440 49 504 64 90 211 121 343 75z"/>
<path d="M2012 3219 l3 -800 168 -2 167 -2 0 318 0 317 228 2 c125 1 237 1
250 0 22 -1 22 0 22 141 l0 142 -247 0 -248 0 -3 203 -2 202 285 0 285 0 0
140 0 140 -455 0 -455 0 2 -801z"/>
<path d="M3162 3220 l3 -800 468 0 468 0 2 135 2 135 -297 0 -298 0 0 195 0
195 265 0 265 0 0 140 0 140 -265 0 -265 0 0 190 0 190 296 2 295 3 2 138 2
137 -473 0 -472 0 2 -800z"/>
<path d="M4370 3218 l0 -803 175 0 175 0 0 278 0 277 90 0 c82 0 91 -2 104
-22 8 -13 72 -137 143 -275 l130 -253 196 -2 c108 -2 197 -3 197 -2 0 0 -55
99 -123 220 -68 120 -141 253 -164 295 l-42 76 77 39 c91 46 138 102 172 203
18 54 24 96 28 226 5 182 -4 244 -49 334 -34 68 -86 119 -161 157 -91 46 -168
53 -575 54 l-373 0 0 -802z m682 522 c93 -26 133 -101 133 -250 0 -122 -26
-182 -95 -220 -42 -23 -57 -25 -207 -28 l-163 -4 0 256 0 256 148 0 c81 0 164
-5 184 -10z"/>
<path d="M7197 3948 c22 -40 118 -218 212 -395 l173 -323 -20 -32 c-18 -30
-422 -778 -422 -781 0 -1 84 -1 187 0 l188 2 135 271 135 270 135 -270 135
-270 203 -3 c111 -1 202 -1 202 -1 0 1 -52 94 -366 654 l-93 165 82 155 c44
85 138 262 208 393 l127 237 -190 -2 -191 -3 -115 -252 c-64 -139 -119 -253
-122 -253 -3 0 -61 114 -130 253 l-125 252 -194 3 -193 2 39 -72z"/>
</g>
</svg>
